<svg width="30" height="30" viewBox="0 0 30 30" fill="none" xmlns="http://www.w3.org/2000/svg">
<rect y="0.5" width="30" height="29" rx="14.5" fill="white"/>
<path d="M14.8073 21C14.5724 20.9223 14.3224 20.8739 14.106 20.7607C13.6031 20.497 13.3019 20.0651 13.1703 19.5041H16.8266C16.7915 19.73 16.7046 19.9308 16.5849 20.1165C16.2724 20.6029 15.831 20.8941 15.2583 20.9807C15.2398 20.9836 15.2224 20.9934 15.2044 21H14.807H14.8073Z" fill="#E16449"/>
<path d="M14.5036 10.0334C14.5036 9.85916 14.5027 9.69148 14.5036 9.52358C14.5062 9.22698 14.7118 9.00623 14.9895 9.00013C15.274 8.99402 15.4922 9.20937 15.5015 9.51019C15.506 9.65461 15.5055 9.79927 15.5015 9.9437C15.4997 10.0144 15.5196 10.0419 15.5947 10.0576C17.0436 10.3598 17.9824 11.2228 18.3799 12.6532C18.4602 12.9423 18.478 13.2537 18.4895 13.5562C18.5075 14.0359 18.4848 14.5171 18.4991 14.9971C18.527 15.9421 18.8988 16.7354 19.5912 17.3748C19.7729 17.5425 19.9328 17.7172 19.9726 17.9723C20.0534 18.4875 19.7186 18.9309 19.2016 18.9933C19.1477 18.9999 19.0929 19.0013 19.0384 19.0013C16.3473 19.0018 13.656 19.0018 10.9649 19.0013C10.5444 19.0013 10.2304 18.8083 10.0862 18.4633C9.93747 18.1075 10.0253 17.7245 10.3306 17.4547C10.7284 17.1031 11.0405 16.6905 11.2478 16.2002C11.4135 15.8078 11.5049 15.3978 11.51 14.9718C11.5161 14.4913 11.5117 14.0108 11.5126 13.5306C11.5161 11.781 12.7248 10.3471 14.4455 10.0501C14.4605 10.0475 14.4748 10.0416 14.5038 10.0329L14.5036 10.0334Z" fill="#E16449"/>
</svg>
