<svg width="30" height="29" viewBox="0 0 30 29" fill="none" xmlns="http://www.w3.org/2000/svg">
<rect width="30" height="29" rx="14.5" fill="#E16449"/>
<path d="M11.1286 19.4818C11.1624 19.6767 11.1974 19.8698 11.2292 20.0632C11.2436 20.152 11.2645 20.2422 11.2613 20.331C11.2528 20.5664 11.0869 20.7671 10.8448 20.8194C10.5313 20.8869 10.2157 20.9464 9.89842 20.9943C9.60332 21.0387 9.31211 20.8187 9.25987 20.5193C9.10773 19.6481 8.95983 18.7759 8.81087 17.904C8.71027 17.3157 8.61038 16.7274 8.51048 16.1388C8.45401 15.8063 8.62838 15.5554 8.96901 15.4862C9.23587 15.4322 9.50378 15.3823 9.7724 15.3365C10.1575 15.2707 10.4092 15.4487 10.4787 15.8291C10.5048 15.9726 10.5317 16.1158 10.561 16.2755C10.609 16.2548 10.6503 16.2373 10.6916 16.2187C11.0555 16.0576 11.4117 15.8769 11.7848 15.7406C12.1452 15.6091 12.5214 15.6366 12.8864 15.7578C13.8684 16.0841 14.8494 16.4132 15.8328 16.7364C15.8949 16.7567 15.981 16.754 16.0407 16.7281C17.3838 16.1492 18.7237 15.5626 20.0672 14.984C20.4636 14.8133 20.8501 14.8525 21.1752 15.1403C21.4918 15.4205 21.5663 15.7809 21.4449 16.1771C21.3743 16.4073 21.2077 16.5629 21.0026 16.6855C19.9743 17.2995 18.9464 17.9139 17.9186 18.5284C17.2468 18.9297 16.573 19.3273 15.9048 19.7338C15.3732 20.057 14.8165 20.1131 14.2214 19.9348C13.6206 19.7548 13.016 19.5861 12.411 19.4192C11.9835 19.3011 11.5592 19.3225 11.1282 19.4815L11.1286 19.4818ZM11.6789 16.3368C11.3905 16.4745 11.1053 16.619 10.8123 16.7464C10.6916 16.7987 10.6693 16.8613 10.6926 16.9804C10.7682 17.3677 10.8317 17.757 10.9009 18.1456C10.9478 18.41 10.9962 18.6736 11.0449 18.9428C11.0746 18.938 11.0919 18.9373 11.1077 18.9321C11.6097 18.7738 12.113 18.7834 12.6157 18.9252C13.1985 19.0894 13.7826 19.2502 14.3612 19.4271C14.8243 19.5686 15.2454 19.5173 15.6591 19.2643C16.55 18.7194 17.4509 18.1903 18.3474 17.6544C19.1353 17.1835 19.9228 16.7123 20.7107 16.2418C20.818 16.1777 20.9157 16.1068 20.9433 15.9767C20.9803 15.7998 20.9464 15.6391 20.8014 15.521C20.6439 15.3929 20.4639 15.3888 20.2804 15.4683C19.453 15.8277 18.6259 16.1877 17.7989 16.5474C17.3453 16.7447 16.8921 16.9422 16.4671 17.1271C16.5264 17.3216 16.6136 17.4933 16.627 17.6706C16.6775 18.3456 16.0375 18.834 15.3619 18.6451C15.0961 18.5707 14.8359 18.4767 14.5737 18.3903C14.2655 18.2891 13.9567 18.1893 13.6496 18.0843C13.4914 18.0303 13.4201 17.8898 13.4674 17.7467C13.513 17.6079 13.6605 17.5398 13.8218 17.5842C13.8557 17.5935 13.8882 17.6069 13.9214 17.6179C14.459 17.7935 14.9951 17.9738 15.5352 18.1422C15.7396 18.2062 15.9313 18.1194 16.0315 17.947C16.1332 17.7721 16.1116 17.5666 15.9567 17.429C15.8709 17.3525 15.7678 17.2813 15.6595 17.2445" fill="white"/>
<path d="M14.97 13.7047C14.7657 13.8276 14.572 13.9444 14.3783 14.0609C14.2825 14.1184 14.184 14.1333 14.0841 14.0754C13.2915 13.6144 12.5637 13.0657 11.9899 12.3151C11.584 11.7842 11.29 11.194 11.2035 10.5089C11.1156 9.81464 11.2349 9.16952 11.6653 8.61609C12.2459 7.86945 13.1695 7.79267 13.8532 8.43379C13.9841 8.55641 14.0965 8.70087 14.225 8.8435C14.2729 8.78346 14.3229 8.71833 14.3752 8.65538C15.3071 7.53324 16.6107 7.9615 17.0749 9.15605C17.2041 9.48898 17.2503 9.83647 17.2451 10.1941C17.2444 10.2545 17.2661 10.3153 17.283 10.4066C17.3947 10.2738 17.475 10.169 17.5646 10.0741C18.3285 9.26448 19.4085 9.38092 19.9933 10.3455C20.4172 11.0448 20.4372 11.7984 20.2049 12.5691C19.9585 13.3859 19.464 14.0238 18.8644 14.5801C18.4399 14.9742 17.9702 15.2998 17.4777 15.5905C17.3771 15.6499 17.2796 15.672 17.1734 15.6098C16.4053 15.1601 15.6971 14.6296 15.1292 13.9117C15.0772 13.8458 15.0269 13.7782 14.9707 13.705L14.97 13.7047Z" fill="white"/>
</svg>
