<svg width="30" height="30" viewBox="0 0 30 30" fill="none" xmlns="http://www.w3.org/2000/svg">
<rect y="0.5" width="30" height="29" rx="14.5" fill="white"/>
<path d="M7.98468 14.9171C8.07987 14.6762 8.25962 14.5876 8.51333 14.6012C8.74544 14.6136 8.97865 14.6019 9.21149 14.6045C9.47142 14.607 9.65191 14.7722 9.65594 15.0065C9.65996 15.2397 9.4835 15.4169 9.22503 15.4235C8.95595 15.4304 8.6865 15.4253 8.41741 15.4249C8.19702 15.4246 8.06669 15.2997 7.98468 15.109V14.9171Z" fill="#E16449"/>
<path d="M12.9201 18.7026C12.908 18.6455 12.8959 18.5833 12.8817 18.5218C12.7978 18.1674 12.6324 17.8591 12.3743 17.5992C11.8105 17.0306 11.4634 16.35 11.3455 15.5578C11.057 13.6222 12.2728 11.8056 14.1978 11.4117C15.8738 11.069 17.4536 11.7902 18.2462 13.2323C19.0168 14.6341 18.7953 16.3746 17.6904 17.5322C17.3924 17.8445 17.1823 18.1956 17.0999 18.6221C17.0929 18.6583 17.0333 18.7107 16.9978 18.7107C15.6509 18.7147 14.3043 18.7132 12.9575 18.7121C12.9487 18.7121 12.9399 18.7077 12.9208 18.703L12.9201 18.7026ZM14.9948 13.3711C14.3219 13.3751 13.7636 13.9286 13.7676 14.5884C13.7695 14.8611 13.9972 15.0526 14.26 15.0021C14.4512 14.9654 14.5701 14.8161 14.5895 14.588C14.6082 14.3724 14.7561 14.2153 14.9597 14.1959C15.1614 14.1765 15.336 14.2969 15.3942 14.4954C15.4535 14.6975 15.3554 14.8897 15.1354 14.9914C14.7806 15.1558 14.602 15.4366 14.591 15.8229C14.5848 16.0407 14.7396 16.2139 14.9472 16.2395C15.164 16.2666 15.3591 16.1359 15.3997 15.9144C15.4202 15.8024 15.4704 15.742 15.5692 15.6918C16.0785 15.4322 16.3347 14.86 16.1971 14.3065C16.0598 13.7544 15.563 13.3678 14.9948 13.3711ZM15.4111 17.4839C15.4136 17.2594 15.2309 17.0735 15.0051 17.0705C14.7795 17.068 14.5925 17.2499 14.5895 17.474C14.587 17.698 14.77 17.8847 14.9952 17.8873C15.2207 17.8899 15.4081 17.7079 15.4107 17.4835L15.4111 17.4839Z" fill="#E16449"/>
<path d="M12.9593 19.5406H17.0343C17.1365 20.2952 16.9234 21.0677 16.2205 21.5978C15.5732 22.0858 14.6744 22.1338 13.9774 21.7197C13.2426 21.2833 12.8637 20.4343 12.9593 19.541V19.5406Z" fill="#E16449"/>
<path d="M14.5895 8.83252C14.5895 8.69084 14.5862 8.54915 14.5903 8.40784C14.5968 8.1739 14.7751 7.99963 15.001 8C15.2276 8.00037 15.4059 8.1739 15.41 8.4093C15.4147 8.6923 15.4151 8.97566 15.41 9.25866C15.4059 9.4937 15.2262 9.66686 14.9996 9.6665C14.7737 9.66613 14.5968 9.4915 14.5903 9.2572C14.5862 9.11588 14.5895 8.9742 14.5895 8.83252Z" fill="#E16449"/>
<path d="M21.176 15.4242C21.0391 15.4242 20.9018 15.43 20.7653 15.4231C20.5145 15.4106 20.3424 15.2378 20.3446 15.009C20.3468 14.7747 20.5277 14.6067 20.7865 14.6041C21.0512 14.6015 21.3163 14.6012 21.581 14.6041C21.8317 14.607 22.0093 14.7733 22.0151 15.0028C22.0206 15.2312 21.8497 15.4088 21.6007 15.4224C21.4594 15.43 21.3177 15.4238 21.176 15.4238V15.4242Z" fill="#E16449"/>
<path d="M11.705 8.90977C11.8643 8.90903 11.9869 8.97749 12.0671 9.11332C12.2062 9.34836 12.3446 9.58376 12.476 9.82282C12.5895 10.0297 12.5236 10.2684 12.3311 10.3826C12.1396 10.4961 11.8917 10.4375 11.7705 10.2384C11.6263 10.0015 11.4861 9.76169 11.355 9.51676C11.2042 9.2345 11.3931 8.91416 11.7043 8.90977H11.705Z" fill="#E16449"/>
<path d="M18.2879 8.91013C18.5951 8.91013 18.795 9.22058 18.6529 9.49772C18.52 9.75655 18.3714 10.0077 18.2172 10.2545C18.1012 10.4408 17.8599 10.491 17.6751 10.3862C17.4847 10.2782 17.4085 10.0406 17.5151 9.84186C17.6505 9.58961 17.7962 9.34213 17.9438 9.09647C18.0192 8.97053 18.1444 8.91013 18.2879 8.91013Z" fill="#E16449"/>
<path d="M9.99716 12.5565C9.9221 12.5276 9.84229 12.5064 9.77237 12.4679C9.55747 12.3489 9.34586 12.2245 9.13389 12.1C8.90434 11.9653 8.82966 11.7291 8.94827 11.5208C9.06543 11.3147 9.31328 11.2576 9.54246 11.3875C9.772 11.5175 10.0015 11.6478 10.2267 11.7851C10.398 11.8898 10.4632 12.0755 10.4065 12.2574C10.3508 12.435 10.1916 12.5474 9.99716 12.5565Z" fill="#E16449"/>
<path d="M10.4244 17.9481C10.4229 18.0389 10.3611 18.159 10.2366 18.2344C9.99167 18.3827 9.74455 18.5284 9.4923 18.6642C9.29607 18.77 9.05298 18.6909 8.94718 18.5031C8.83844 18.3102 8.89446 18.074 9.08959 17.9543C9.32975 17.8071 9.57321 17.6636 9.82179 17.5307C10.0997 17.3821 10.4248 17.5813 10.4244 17.9481Z" fill="#E16449"/>
<path d="M20.0108 12.543C19.7973 12.5404 19.6428 12.4244 19.5912 12.2519C19.54 12.0813 19.5985 11.8935 19.7552 11.7969C20.0067 11.642 20.2626 11.493 20.5237 11.355C20.7089 11.2569 20.9421 11.3367 21.0479 11.5131C21.1545 11.6914 21.1175 11.9352 20.9403 12.0487C20.684 12.2127 20.4157 12.3585 20.1495 12.5067C20.1001 12.5342 20.0368 12.5364 20.0104 12.5426L20.0108 12.543Z" fill="#E16449"/>
<path d="M20.68 18.7217C20.6086 18.6953 20.5321 18.6777 20.4662 18.6415C20.2433 18.5181 20.0232 18.39 19.804 18.2608C19.5832 18.1308 19.5114 17.8939 19.6271 17.6893C19.7421 17.4861 19.9874 17.4235 20.2081 17.5469C20.4424 17.6779 20.6753 17.8112 20.9048 17.9503C21.0762 18.0539 21.1417 18.237 21.0864 18.4215C21.0333 18.5994 20.8744 18.7133 20.68 18.722V18.7217Z" fill="#E16449"/>
</svg>
