<svg width="9" height="10" viewBox="0 0 9 10" fill="none" xmlns="http://www.w3.org/2000/svg">
<path d="M0 2.83799C0.0133851 2.77553 0.025596 2.71283 0.0403901 2.6506C0.198898 1.98487 0.793242 1.507 1.48034 1.5023C2.14819 1.4976 2.81627 1.49995 3.48411 1.50136C3.77788 1.50207 3.99862 1.71787 3.99956 1.99896C4.0005 2.2784 3.77976 2.49937 3.48646 2.50078C2.84186 2.50383 2.19727 2.51064 1.55314 2.4982C1.2272 2.49186 0.996132 2.73655 0.997541 3.04933C1.00482 4.68396 1.00083 6.31858 1.00106 7.95344C1.00106 8.29676 1.20348 8.49918 1.5468 8.49941C3.18142 8.49965 4.81628 8.49965 6.4509 8.49941C6.79586 8.49941 6.99805 8.2984 6.99828 7.95555C6.99875 7.31096 6.99711 6.66659 6.99899 6.022C6.99993 5.69019 7.26012 5.46241 7.57995 5.5082C7.81712 5.54225 7.99723 5.74936 7.99817 5.99851C8.00029 6.53157 8.0024 7.06486 7.99747 7.59791C7.99536 7.8372 8.00381 8.08165 7.9599 8.31484C7.84413 8.93243 7.33409 9.39574 6.71062 9.48427C6.69395 9.48662 6.67822 9.4946 6.66178 9.5H1.33593C1.31972 9.4946 1.30399 9.48662 1.28732 9.48427C0.687571 9.39832 0.201246 8.9639 0.048609 8.37589C0.0302926 8.30591 0.016203 8.23476 0 8.16408C0 6.38856 0 4.61327 0 2.83799Z" fill="#E16449"/>
<path d="M7.26691 1.50067C7.23568 1.50067 7.20468 1.50067 7.17345 1.50067C6.61996 1.50067 6.06648 1.50208 5.51299 1.5002C5.15465 1.49879 4.91325 1.16534 5.02808 0.835175C5.09923 0.630642 5.28592 0.500783 5.51511 0.500548C6.24142 0.499843 6.96774 0.500313 7.69406 0.500313C7.95471 0.500313 8.21537 0.499609 8.47603 0.500313C8.78788 0.501487 8.99922 0.712596 8.99945 1.02538C9.00016 2.0093 9.00016 2.99346 8.99945 3.97738C8.99922 4.27561 8.78224 4.5001 8.49904 4.4994C8.2156 4.4987 8.00003 4.27467 7.99933 3.97597C7.99816 3.42531 7.9991 2.87487 7.99886 2.32421C7.99886 2.29344 7.99886 2.26268 7.99886 2.23192C7.98829 2.22488 7.97796 2.2176 7.96739 2.21055C7.94438 2.24343 7.92559 2.28076 7.89765 2.30871C6.56266 3.6451 5.22627 4.98032 3.89175 6.31719C3.74311 6.46607 3.57403 6.53581 3.36739 6.47969C3.01797 6.38482 2.88505 5.96471 3.11354 5.6841C3.14125 5.65005 3.17295 5.61952 3.20418 5.58852C4.52954 4.26316 5.85466 2.93757 7.18049 1.61268C7.21149 1.58169 7.24671 1.55492 7.28006 1.52627C7.27583 1.51781 7.27137 1.50913 7.26714 1.50067H7.26691Z" fill="#E16449"/>
</svg>
