<svg width="30" height="29" viewBox="0 0 30 29" fill="none" xmlns="http://www.w3.org/2000/svg">
<rect width="30" height="29" rx="14.5" fill="#E16449"/>
<path d="M17.7575 11.6144C18.409 11.233 19.0597 10.8547 19.7055 10.469C19.7445 10.4458 19.7725 10.3591 19.7642 10.3087C19.6757 9.74912 20.0659 9.18735 20.6412 9.07307C21.2437 8.95354 21.7963 9.3082 21.9539 9.90412C22.0704 10.3442 21.8672 10.8569 21.4788 11.1034C21.0725 11.3613 20.5322 11.3425 20.1815 11.039C20.0681 10.941 19.9949 10.9471 19.8741 11.0198C19.3088 11.3604 18.7378 11.6919 18.166 12.0225C18.0706 12.0776 18.0303 12.1254 18.0539 12.2502C18.1332 12.6644 17.902 13.1368 17.5351 13.3553C17.1344 13.5939 16.6234 13.5685 16.2736 13.2936C15.9075 13.0059 15.7447 12.5361 15.88 12.1109C15.9181 11.9918 15.9005 11.9288 15.8016 11.8521C15.1501 11.3469 14.5042 10.8346 13.8558 10.3249C13.8093 10.2881 13.7607 10.2544 13.7161 10.2211C13.2957 10.4585 13.2064 10.4738 12.6897 10.3998C12.6643 10.4374 12.6359 10.4768 12.6101 10.518C11.751 11.8797 10.8937 13.2419 10.0315 14.6014C9.97022 14.6982 9.96496 14.7608 10.0359 14.858C10.3078 15.2306 10.2995 15.7618 10.0293 16.1309C9.73728 16.5298 9.23418 16.6909 8.76261 16.5359C8.3195 16.3901 8.01125 15.9654 8.00556 15.4925C7.99987 15.0178 8.29323 14.5725 8.74028 14.4403C8.93162 14.3838 9.14836 14.3799 9.3489 14.3978C9.46493 14.4083 9.51222 14.3851 9.56739 14.2963C10.3249 13.09 11.0854 11.8859 11.8451 10.6813C11.9441 10.5246 12.0382 10.3643 12.1433 10.2115C12.2002 10.1287 12.205 10.0727 12.1411 9.98381C11.8806 9.62127 11.8368 9.22764 12.0395 8.82612C12.2488 8.4141 12.5982 8.2013 13.0593 8.21094C13.5199 8.22057 13.8566 8.44869 14.0528 8.86772C14.1706 9.11905 14.1863 9.38483 14.0979 9.64842C14.0664 9.74212 14.0804 9.79422 14.1574 9.85465C14.8291 10.3783 15.4981 10.9059 16.1672 11.4327C16.2285 11.4808 16.2749 11.5181 16.3655 11.4646C16.8165 11.1989 17.2601 11.2348 17.673 11.5566C17.6984 11.5763 17.7264 11.5929 17.7575 11.614V11.6144ZM16.9453 11.8504C16.6375 11.853 16.3966 12.0956 16.3962 12.403C16.3958 12.7134 16.6515 12.9687 16.958 12.9639C17.2592 12.959 17.5092 12.7068 17.5105 12.4065C17.5119 12.0969 17.2588 11.8478 16.9453 11.8504ZM9.12428 14.9237C8.81822 14.9215 8.56952 15.1628 8.56426 15.4671C8.55901 15.7793 8.80508 16.0337 9.1164 16.0367C9.42509 16.0398 9.6808 15.7841 9.67861 15.4754C9.67642 15.172 9.42947 14.9259 9.12428 14.9241V14.9237ZM13.5904 9.3336C13.5939 9.02491 13.3566 8.77796 13.051 8.77139C12.737 8.76482 12.4822 9.00827 12.4769 9.31915C12.4717 9.62346 12.7318 9.88661 13.037 9.88617C13.3395 9.88573 13.5869 9.63835 13.5908 9.3336H13.5904ZM21.4219 10.1682C21.4228 9.86253 21.1815 9.61426 20.8768 9.60682C20.5716 9.59981 20.3032 9.86253 20.3076 10.1638C20.3124 10.4773 20.562 10.7242 20.8733 10.7234C21.1758 10.7229 21.4206 10.4747 21.4219 10.1677V10.1682Z" fill="white"/>
<path d="M11.9997 17.0092C11.8609 16.6239 11.8999 16.2543 12.1459 15.9146C12.4047 15.5573 12.8842 15.3966 13.3295 15.5166C13.759 15.6322 14.1027 16.0166 14.1356 16.4479C14.1469 16.5963 14.2052 16.6467 14.3409 16.6826C14.8466 16.817 15.3493 16.9637 15.8511 17.1125C15.9474 17.141 16.0052 17.1358 16.0718 17.0486C16.3691 16.6598 16.8292 16.5162 17.2978 16.6655C17.3897 16.6948 17.4317 16.6721 17.4865 16.6033C18.2689 15.6208 19.0536 14.6404 19.8399 13.6609C19.8977 13.5887 19.91 13.5353 19.8675 13.4446C19.6574 12.9932 19.7248 12.5729 20.0471 12.1972C20.3317 11.8653 20.8133 11.7409 21.2433 11.8955C21.6978 12.0593 21.9495 12.396 21.9951 12.8745C22.0721 13.6815 21.2306 14.3037 20.4726 13.9985C20.3588 13.9525 20.3054 13.9683 20.2318 14.0607C19.4673 15.0227 18.6985 15.9807 17.9305 16.9396C17.9033 16.9733 17.8784 17.0092 17.8481 17.0495C18.0513 17.3617 18.1297 17.6931 18.0106 18.0592C17.8521 18.5465 17.3582 18.8819 16.8647 18.8289C16.3086 18.7694 15.8931 18.3596 15.8393 17.8271C15.8336 17.7698 15.792 17.6813 15.7482 17.6682C15.1693 17.4939 14.587 17.3306 14.0572 17.1795C13.8413 17.3411 13.6719 17.511 13.4687 17.6104C13.1294 17.7763 12.7786 17.7417 12.4538 17.539C12.3841 17.4957 12.3325 17.4685 12.2523 17.5294C11.5435 18.0671 10.8311 18.5999 10.1121 19.1398C10.1436 19.2366 10.1826 19.3312 10.2058 19.4297C10.3472 20.03 9.9501 20.6487 9.35023 20.7673C8.72278 20.8917 8.1111 20.4766 8.01433 19.8614C7.91363 19.2199 8.35455 18.638 8.99207 18.5689C9.20968 18.5452 9.41328 18.5833 9.61251 18.6726C9.66461 18.6958 9.75569 18.7007 9.79685 18.6704C10.5254 18.1314 11.2488 17.5859 11.9734 17.0412C11.9817 17.035 11.987 17.0245 11.9997 17.0083V17.0092ZM20.872 12.4069C20.5598 12.4047 20.305 12.6565 20.3076 12.9647C20.3102 13.2655 20.5607 13.5177 20.861 13.5221C21.1684 13.5265 21.4224 13.2712 21.4215 12.9595C21.4206 12.6517 21.1793 12.4091 20.872 12.4069ZM8.56384 19.6775C8.56516 19.9818 8.81036 20.2283 9.1151 20.2318C9.42335 20.2358 9.68038 19.9805 9.67862 19.6718C9.67687 19.3684 9.43036 19.1219 9.12561 19.1192C8.81298 19.1162 8.56253 19.3653 8.56384 19.6779V19.6775ZM13.59 16.5954C13.5917 16.2819 13.343 16.0337 13.0295 16.0363C12.7261 16.0389 12.4783 16.2867 12.4761 16.5897C12.4739 16.898 12.7274 17.1493 13.04 17.1485C13.3448 17.1476 13.5882 16.9028 13.5896 16.5954H13.59ZM16.3962 17.7163C16.3971 18.0198 16.6458 18.2746 16.9431 18.2759C17.2439 18.2777 17.4935 18.0303 17.4983 17.7255C17.5031 17.4256 17.2531 17.1712 16.951 17.1686C16.6471 17.1655 16.3958 17.4142 16.3966 17.7163H16.3962Z" fill="white"/>
</svg>
